<svg data-v-423bf9ae="" xmlns="http://www.w3.org/2000/svg" viewBox="0 0 220.04427431255064 60" class="font"><!----><!----><!----><g data-v-423bf9ae="" id="91c5da66-aad6-44d0-9061-972512680f3b" fill="white" transform="matrix(13.767107662860946,0,0,13.767107662860946,0.0000014393057341521853,-74.27354486329233)"><path d="M3.60 9.26L3.60 9.26L3.60 9.26Q3.09 9.71 2.38 9.75L2.38 9.75L2.38 9.75Q1.69 9.78 1.07 9.53L1.07 9.53L1.07 9.52L1.05 9.52L1.05 9.52Q0.95 9.49 0.76 9.33L0.76 9.33L0.76 9.33Q0.57 9.17 0.51 9.08L0.51 9.08L0.51 9.08Q0.41 8.95 0.33 8.78L0.33 8.78L0.33 8.78Q0.25 8.61 0.17 8.45L0.17 8.45L0.17 8.45Q0.02 8.16 0.01 7.95L0.01 7.95L0.01 7.95Q0 7.85 0.00 7.71L0.00 7.71L0.00 7.71Q0.01 7.58 0.02 7.41L0.02 7.41L0.02 7.41Q0.08 6.66 0.49 6.02L0.49 6.02L0.49 6.02Q0.53 5.97 0.62 5.89L0.62 5.89L0.62 5.89Q0.72 5.81 0.87 5.73L0.87 5.73L0.87 5.73Q1.18 5.56 1.40 5.49L1.40 5.49L1.40 5.49Q1.54 5.44 1.72 5.42L1.72 5.42L1.72 5.42Q2.13 5.37 2.56 5.42L2.56 5.42L2.56 5.42Q2.99 5.48 3.36 5.69L3.36 5.69L3.36 5.69Q3.42 5.72 3.48 5.77L3.48 5.77L3.48 5.77Q3.55 5.82 3.64 5.89L3.64 5.89L3.64 5.89Q3.81 6.02 3.83 6.15L3.83 6.15L3.83 6.15Q3.83 6.21 3.79 6.27L3.79 6.27L3.79 6.27Q3.71 6.36 3.64 6.36L3.64 6.36L3.64 6.36Q3.56 6.36 3.47 6.30L3.47 6.30L3.47 6.30Q3.37 6.23 3.32 6.19L3.32 6.19L3.32 6.19Q3.20 6.12 3.13 6.07L3.13 6.07L3.13 6.07Q3.06 6.02 3.04 6.01L3.04 6.01L3.04 6.01Q2.69 5.82 2.19 5.82L2.19 5.82L2.19 5.82Q2.08 5.82 1.94 5.83L1.94 5.83L1.94 5.83Q1.80 5.84 1.65 5.87L1.65 5.87L1.63 5.87L1.62 5.88L1.62 5.88Q0.75 6.13 0.49 7.06L0.49 7.06L0.49 7.06Q0.40 7.40 0.45 7.70L0.45 7.70L0.45 7.70Q0.51 8.00 0.59 8.31L0.59 8.31L0.59 8.31Q0.72 8.79 1.02 9.00L1.02 9.00L1.02 9.00Q1.32 9.21 1.78 9.30L1.78 9.30L1.78 9.30L1.78 9.30Q1.91 9.32 2.01 9.32L2.01 9.32L2.01 9.32Q2.12 9.32 2.22 9.30L2.22 9.30L2.22 9.30Q2.32 9.28 2.43 9.26L2.43 9.26L2.43 9.26Q2.54 9.24 2.66 9.23L2.66 9.23L2.66 9.23Q3.14 9.17 3.35 8.88L3.35 8.88L3.35 8.87L3.35 8.87Q3.50 8.64 3.47 8.22L3.47 8.22L3.47 8.22Q3.47 8.00 3.32 7.87L3.32 7.87L3.32 7.87Q3.13 7.70 2.80 7.71L2.80 7.71L2.26 7.73L2.26 7.73Q2.17 7.74 2.10 7.74L2.10 7.74L2.10 7.74Q2.03 7.75 1.98 7.75L1.98 7.75L1.98 7.75Q1.72 7.71 1.75 7.51L1.75 7.51L1.75 7.51Q1.77 7.38 1.94 7.33L1.94 7.33L1.94 7.33Q2.25 7.31 2.55 7.33L2.55 7.33L2.55 7.33Q2.84 7.35 3.16 7.33L3.16 7.33L3.45 7.31L3.45 7.31Q3.65 7.29 3.75 7.38L3.75 7.38L3.75 7.38Q3.86 7.46 3.86 7.66L3.86 7.66L3.86 7.66Q3.88 7.87 3.88 7.98L3.88 7.98L3.88 7.98Q3.88 8.16 3.89 8.36L3.89 8.36L3.89 8.36Q3.90 8.57 3.86 8.74L3.86 8.74L3.86 8.74Q3.81 9.00 3.60 9.26ZM9.52 9.47L9.52 9.47L9.52 9.47Q9.52 9.65 9.38 9.69L9.38 9.69L9.38 9.69Q9.26 9.75 9.16 9.61L9.16 9.61L9.16 9.61Q9.11 9.54 9.08 9.49L9.08 9.49L9.08 9.49Q9.05 9.43 9.03 9.39L9.03 9.39L9.03 9.39Q8.93 9.18 8.86 9.03L8.86 9.03L8.86 9.03Q8.78 8.87 8.71 8.78L8.71 8.78L8.71 8.78Q8.54 8.55 8.35 8.49L8.35 8.49L8.35 8.49Q8.18 8.44 7.80 8.48L7.80 8.48L7.80 8.48Q7.58 8.50 7.39 8.51L7.39 8.51L7.39 8.51Q7.19 8.52 7.01 8.50L7.01 8.50L7.01 8.50Q6.62 8.48 6.43 8.76L6.43 8.76L6.41 8.78L6.41 8.79L6.41 8.79Q6.34 8.93 6.29 9.06L6.29 9.06L6.29 9.06Q6.25 9.19 6.19 9.32L6.19 9.32L6.04 9.54L6.04 9.54Q5.95 9.69 5.84 9.70L5.84 9.70L5.84 9.70Q5.80 9.72 5.71 9.65L5.71 9.65L5.71 9.65Q5.67 9.60 5.66 9.55L5.66 9.55L5.66 9.55Q5.65 9.49 5.66 9.43L5.66 9.43L5.66 9.43Q5.67 9.37 5.69 9.30L5.69 9.30L5.69 9.30Q5.71 9.24 5.74 9.19L5.74 9.19L5.90 8.85L5.90 8.85Q6.14 8.35 6.35 7.85L6.35 7.85L6.35 7.85Q6.56 7.34 6.79 6.83L6.79 6.83L6.79 6.83Q6.83 6.74 6.86 6.66L6.86 6.66L6.86 6.66Q6.89 6.58 6.92 6.51L6.92 6.51L6.92 6.51Q7 6.32 7.08 6.14L7.08 6.14L7.08 6.14Q7.15 5.95 7.25 5.76L7.25 5.76L7.35 5.61L7.35 5.61Q7.42 5.48 7.49 5.48L7.49 5.48L7.49 5.48Q7.56 5.46 7.67 5.59L7.67 5.59L7.67 5.59Q7.79 5.73 7.89 5.91L7.89 5.91L7.89 5.91Q8.00 6.10 8.07 6.26L8.07 6.26L8.07 6.26Q8.31 6.77 8.52 7.28L8.52 7.28L8.52 7.28Q8.73 7.79 8.97 8.28L8.97 8.28L8.97 8.28Q9.04 8.43 9.12 8.58L9.12 8.58L9.12 8.58Q9.19 8.74 9.27 8.88L9.27 8.88L9.27 8.88Q9.31 8.98 9.35 9.08L9.35 9.08L9.35 9.08Q9.40 9.17 9.44 9.27L9.44 9.27L9.44 9.27Q9.47 9.34 9.50 9.39L9.50 9.39L9.50 9.39Q9.52 9.44 9.52 9.47ZM8.17 7.56L8.17 7.56L8.17 7.56Q8.10 7.40 8.04 7.22L8.04 7.22L8.04 7.22Q7.97 7.05 7.88 6.88L7.88 6.88L7.88 6.88Q7.72 6.57 7.52 6.58L7.52 6.58L7.52 6.58Q7.44 6.58 7.39 6.62L7.39 6.62L7.39 6.62Q7.33 6.67 7.29 6.72L7.29 6.72L7.29 6.72Q7.25 6.78 7.21 6.85L7.21 6.85L7.21 6.85Q7.18 6.92 7.16 6.98L7.16 6.98L7.16 6.98Q7.08 7.18 7.01 7.40L7.01 7.40L7.01 7.40Q6.95 7.62 6.88 7.83L6.88 7.83L6.88 7.83Q6.84 7.98 6.90 8.05L6.90 8.05L6.90 8.05Q6.94 8.12 7.11 8.13L7.11 8.13L7.11 8.13Q7.26 8.14 7.38 8.15L7.38 8.15L7.38 8.15Q7.49 8.15 7.57 8.14L7.57 8.14L7.57 8.14Q7.72 8.14 7.96 8.10L7.96 8.10L7.96 8.10Q8.22 8.06 8.26 7.88L8.26 7.88L8.26 7.88Q8.29 7.77 8.24 7.69L8.24 7.69L8.24 7.69Q8.22 7.66 8.20 7.63L8.20 7.63L8.20 7.63Q8.18 7.59 8.17 7.56ZM10.69 6.24L10.69 6.24L10.69 6.24Q10.75 6.36 10.78 6.48L10.78 6.48L10.78 6.48Q10.81 6.60 10.84 6.73L10.84 6.73L10.84 6.73Q10.87 6.85 10.91 6.97L10.91 6.97L10.91 6.97Q10.94 7.10 11.01 7.21L11.01 7.21L11.01 7.21Q11.13 7.42 11.22 7.64L11.22 7.64L11.22 7.64Q11.31 7.85 11.42 8.07L11.42 8.07L11.56 8.37L11.56 8.37Q11.67 8.55 11.83 8.57L11.83 8.57L11.83 8.57Q12.03 8.59 12.19 8.24L12.19 8.24L12.19 8.24Q12.28 8.05 12.35 7.84L12.35 7.84L12.35 7.84Q12.43 7.63 12.50 7.42L12.50 7.42L12.50 7.42Q12.50 7.40 12.53 7.34L12.53 7.34L12.53 7.34Q12.56 7.27 12.63 7.16L12.63 7.16L12.63 7.16Q12.67 7.08 12.71 7.02L12.71 7.02L12.71 7.02Q12.75 6.95 12.78 6.90L12.78 6.90L12.78 6.90Q12.94 6.58 13.10 6.25L13.10 6.25L13.10 6.25Q13.25 5.91 13.38 5.56L13.38 5.56L13.38 5.56Q13.40 5.47 13.45 5.45L13.45 5.45L13.45 5.45Q13.51 5.43 13.68 5.50L13.68 5.50L13.68 5.50Q13.81 5.57 13.82 5.61L13.82 5.61L13.82 5.61Q13.83 5.67 13.78 5.77L13.78 5.77L13.78 5.77Q13.73 5.87 13.71 5.93L13.71 5.93L13.64 6.05L13.64 6.05Q13.58 6.16 13.54 6.27L13.54 6.27L13.54 6.27Q13.49 6.37 13.43 6.47L13.43 6.47L13.43 6.47Q13.34 6.66 13.27 6.85L13.27 6.85L13.27 6.85Q13.19 7.04 13.11 7.23L13.11 7.23L13.11 7.23Q12.93 7.64 12.74 8.04L12.74 8.04L12.74 8.04Q12.55 8.45 12.33 8.84L12.33 8.84L12.33 8.84Q12.24 9.00 12.17 9.21L12.17 9.21L12.17 9.21Q12.11 9.45 11.98 9.54L11.98 9.54L11.98 9.54Q11.92 9.58 11.85 9.59L11.85 9.59L11.85 9.59Q11.81 9.60 11.74 9.57L11.74 9.57L11.74 9.57Q11.68 9.55 11.65 9.50L11.65 9.50L11.65 9.50Q11.61 9.45 11.58 9.39L11.58 9.39L11.58 9.39Q11.55 9.33 11.52 9.27L11.52 9.27L11.52 9.27Q11.49 9.21 11.47 9.16L11.47 9.16L11.47 9.16Q11.32 8.93 11.20 8.65L11.20 8.65L11.20 8.65Q11.07 8.37 10.93 8.04L10.93 8.04L10.93 8.04Q10.83 7.82 10.74 7.59L10.74 7.59L10.74 7.59Q10.66 7.37 10.54 7.15L10.54 7.15L10.54 7.15Q10.49 7.08 10.40 6.77L10.40 6.77L10.40 6.77Q10.38 6.73 10.36 6.65L10.36 6.65L10.36 6.65Q10.34 6.58 10.30 6.49L10.30 6.49L10.30 6.49Q10.25 6.34 10.18 6.21L10.18 6.21L10.18 6.21Q10.10 6.07 10.04 5.93L10.04 5.93L10.04 5.93Q9.93 5.67 9.93 5.61L9.93 5.61L9.93 5.61Q9.95 5.48 10.06 5.43L10.06 5.43L10.06 5.43Q10.26 5.35 10.36 5.59L10.36 5.59L10.36 5.59Q10.44 5.76 10.53 5.92L10.53 5.92L10.53 5.92Q10.62 6.08 10.69 6.24ZM15.69 9.70L15.69 9.70L15.69 9.70Q15.47 9.67 15.47 9.44L15.47 9.44L15.47 9.44Q15.46 9.07 15.46 8.72L15.46 8.72L15.46 8.72Q15.46 8.36 15.46 7.99L15.46 7.99L15.46 7.99Q15.46 7.79 15.48 7.58L15.48 7.58L15.48 7.58Q15.50 7.43 15.50 7.30L15.50 7.30L15.50 7.30Q15.50 7.17 15.49 7.06L15.49 7.06L15.49 7.06Q15.48 6.99 15.48 6.90L15.48 6.90L15.48 6.90Q15.47 6.80 15.46 6.67L15.46 6.67L15.46 6.67Q15.46 6.60 15.47 6.51L15.47 6.51L15.47 6.51Q15.47 6.41 15.48 6.28L15.48 6.28L15.48 6.28Q15.48 6.19 15.49 6.11L15.49 6.11L15.49 6.11Q15.49 6.04 15.49 5.99L15.49 5.99L15.49 5.84L15.49 5.83L15.49 5.78L15.49 5.78Q15.47 5.61 15.50 5.54L15.50 5.54L15.50 5.54Q15.52 5.49 15.59 5.44L15.59 5.44L15.59 5.44Q15.85 5.30 15.91 5.61L15.91 5.61L15.91 5.61Q15.97 5.84 15.98 6.07L15.98 6.07L15.98 6.07Q15.99 6.29 15.97 6.51L15.97 6.51L15.97 6.51L15.97 6.51Q15.95 6.73 15.96 6.94L15.96 6.94L15.96 6.94Q15.97 7.15 15.95 7.36L15.95 7.36L15.95 7.36Q15.93 7.55 15.91 7.68L15.91 7.68L15.91 7.68Q15.90 7.82 15.89 7.92L15.89 7.92L15.89 7.92Q15.88 8.05 15.88 8.20L15.88 8.20L15.88 8.20Q15.88 8.35 15.89 8.51L15.89 8.51L15.89 8.51Q15.89 8.54 15.89 8.59L15.89 8.59L15.89 8.59Q15.89 8.63 15.89 8.70L15.89 8.70L15.89 8.70Q15.89 8.80 15.89 8.91L15.89 8.91L15.89 8.91Q15.89 9.02 15.90 9.13L15.90 9.13L15.90 9.13Q15.90 9.20 15.90 9.27L15.90 9.27L15.90 9.27Q15.91 9.33 15.90 9.40L15.90 9.40L15.90 9.40Q15.90 9.54 15.89 9.55L15.89 9.55L15.89 9.55Q15.87 9.68 15.69 9.70Z"></path></g><!----><!----></svg>